<?xml version="1.0" standalone="no"?><!DOCTYPE svg PUBLIC "-//W3C//DTD SVG 1.1//EN" "http://www.w3.org/Graphics/SVG/1.1/DTD/svg11.dtd"><svg t="1781838672531" class="icon" viewBox="0 0 1024 1024" version="1.1" xmlns="http://www.w3.org/2000/svg" p-id="8632" xmlns:xlink="http://www.w3.org/1999/xlink" width="200" height="200"><path d="M406.51283989 572.33367506v47.38207948c0 13.09241602-6.85793213 20.57379781-19.3269013 20.5737978s-19.3269013-7.48138039-19.32689991-21.82069431v-47.38207947h-16.83310691v47.38207947c0 23.69103905 13.09241602 36.78345646 35.53655858 36.78345647s36.16000821-13.71586565 36.1600082-37.40690471v-47.38207949l-16.20965866 1.87034476z m62.34484165 0l-36.78345645 82.91863944h16.8331069l6.85793214-16.20965867 0.62344825-1.24689787h38.03035434l7.48138039 17.45655654h18.0800048l-36.16000821-82.91863944-0.62344827-0.62344826h-14.33931389z m99.75174635 0l-19.32690129 57.35725425-18.08000341-57.35725425h-18.08000479l29.30207605 83.54208768h13.7158643l19.32690128-54.86346125 19.3269013 54.86346125h14.33931254l28.67862782-82.91863944h-17.45655517l-18.08000479 57.35725427-19.32690131-57.35725427h-14.33931253z m165.21382926 0v83.54208768h16.8331069v-82.91863944h-16.8331069z m-477.56148436 0v83.54208768h16.83310692v-33.6662152h38.03035295v33.6662152h16.83310692v-82.91863944h-16.20965865v33.66621383h-38.03035298v-33.66621383h-17.45655516z m394.64284492 0v83.54208768h62.9682899v-14.96276215h-46.13518159v-20.57379781h30.54897117v-14.96276216h-30.54897117v-16.83310691h44.88828508v-14.96276216l-61.72139339-1.24689649z m-175.18900404 21.19724605l12.46896779 28.05517817 0.62344962 1.87034616h-25.56138518l0.62344825-1.87034616 11.84551952-28.05517817z" fill="#ffffff" p-id="8633"></path><path d="M466.36388716 147.14185617c-6.23448389 0.62344826-24.93793694 4.98758739-24.93793557 4.9875874-40.52414735 10.59862303-50.49932212 47.38207948-50.49932211 47.38207949-1.87034476 6.23448389-3.11724263 12.46896778-3.11724264 18.70345304v8.10482864c0.62344826 12.46896778 3.11724263 21.8206943 3.11724264 21.82069567 13.71586565 60.47449551 81.04829331 159.60279362 94.76415898 180.80003968 1.2468965 0.62344826 1.87034476 0.62344826 1.87034473 0.62344825 1.87034476-0.62344826 1.87034476-1.87034476 1.87034615-1.87034475 22.44414255-221.32418701-23.06759081-280.55178603-23.06759218-280.55178742z m72.94346467 0s-45.51173474 58.60415076-23.69103906 280.55178742c0 1.2468965 1.2468965 1.87034476 1.2468965 1.87034475 1.87034476 0.62344826 2.49379299-0.62344826 2.49379299-0.62344825 14.33931391-21.8206943 81.04829331-120.32554416 94.764159-180.17659142 0 0 7.48138039-29.30207607 0.62344823-48.62897737 0 0-9.97517478-38.03035296-50.49932073-47.38207948 0-0.62344826-11.84551953-3.74069089-24.93793693-5.61103565z m-210.10211573 66.7089808s-39.27724947 36.78345646-40.52414598 76.06070592v7.48138177c1.87034476 31.79586907 25.56138517 50.49932212 25.56138518 50.49932073 38.03035296 37.40690471 130.92416718 84.16553595 152.12141186 94.76415899 0.62344826 0 1.2468965 0.62344826 1.87034613-0.62344827l0.62344825-0.62344823v-0.62344826c-59.22759901-129.67727068-139.65244406-226.93522266-139.65244544-226.93522265z m347.88421505 0s-80.42484507 97.25795198-139.02899582 225.68832615c0 0-0.62344826 1.87034476 0.62344824 2.49379299l0.62344826 0.62344827h0.62344824s0.62344826 0 0.62344826-0.62344827c21.8206943-11.22207127 114.09106027-57.35725426 151.49796499-94.76415895 0 0 23.69103905-19.3269013 24.93793692-50.49932074 3.11724263-43.01794034-39.90069909-82.91863945-39.90069909-82.91863945z m71.69656817 127.80692454s-130.92416718 70.44967028-198.25659622 115.96140503c0 0-1.2468965 0.62344826-0.62344824 2.49379439 0 0 0.62344826 1.2468965 1.87034612 1.24689649 24.31448867 0 115.96140503 0 117.83174977-0.62344826 0 0 11.84551953-0.62344826 26.18483343-6.23448388 0 0 32.41931732-10.59862303 49.25242426-47.38207949 0 0 7.48138039-15.58621041 7.48138177-37.40690472v-0.62344962c1.2468965-8.72827828 0-18.08000341-3.74069089-27.43172994z m-491.90079829 0c-11.84551953 36.78345646 4.36413914 66.70898078 4.36413778 66.70898078 16.83310691 35.53655996 48.62897598 46.13518299 48.62897735 46.13518299 14.33931391 6.23448389 29.92552432 6.23448389 29.92552294 6.23448388 2.49379299 0.62344826 91.64691633 0 115.96140503 0 0.62344826 0 1.87034476-1.2468965 1.87034613-1.2468965v-1.24689788c0-0.62344826-0.62344826-1.2468965-0.62344825-1.24689651-68.57932554-44.88828649-200.12694097-115.33795676-200.12694098-115.33795676z m195.13935359 130.30071894l-153.99175937 4.98758739c16.83310691 29.92552432 44.88828649 52.99311513 74.19036257 46.13518297 20.57379781-4.98758739 66.08553252-36.78345646 81.04829331-48.00552773 1.2468965-1.2468965 0.62344826-1.87034476 0.62344825-1.87034613-0.62344826-0.62344826-1.87034476-0.62344826-1.87034476-1.2468965z m101.62209112 0.62344824s-1.2468965 0.62344826-1.87034476 1.24689649c0 0-0.62344826 1.2468965 0.62344825 1.87034616 14.33931391 10.59862303 59.22759901 41.77104385 81.04829332 48.00552773 0 0 3.11724263 1.2468965 8.72827826 1.24689649h3.11724127c14.33931391-0.62344826 39.27724947-8.10483002 62.34484163-47.38207948l-153.99175797-4.98758739z" fill="#CF0A2C" p-id="8634"></path><path d="M792.110053 868.31407432h92.557319v18.059964h-92.557319z" fill="#1F69FF" p-id="8635"></path><path d="M987.880071 839.41813032c13.093474-5.417989 21.671958-18.962963 21.671957-33.410935 0-18.059965-10.835979-29.798942-32.507936-36.571428l-18.059965-5.41799c-7.223986-2.257496-12.190476-4.514991-15.802469-7.675485-3.160494-3.160494-4.96649-7.223986-4.96649-11.287478 0-5.417989 2.257496-9.932981 7.223985-13.996472 4.514991-3.611993 10.38448-5.417989 18.059965-5.41799 6.320988 0 12.190476 1.354497 17.156967 4.514992 4.514991 2.708995 8.126984 6.772487 10.384479 11.287478 0.451499 0.451499 0.451499 0.902998 0.902999 1.354497 0.902998-0.451499 1.354497-0.902998 1.354497-0.902998l13.093474-8.126984c0.451499 0 0.451499-0.451499 1.354498-0.902999-0.451499-0.451499-0.451499-1.354497-0.451499-1.354497-3.611993-7.223986-9.481481-13.544974-16.253969-17.156967-8.126984-4.514991-17.156966-6.772487-27.541446-6.772486-8.126984 0-15.802469 1.354497-23.026455 4.514991-6.320988 3.160494-12.190476 7.675485-16.253968 13.544973-3.611993 5.869489-5.869489 13.093474-5.869489 19.865962 0 17.608466 10.38448 29.798942 32.056438 35.66843l19.865961 5.417989c6.772487 2.257496 11.738977 4.514991 14.899471 7.675485 3.160494 3.160494 4.96649 7.223986 4.514991 11.287478 0 5.417989-2.708995 10.38448-7.223986 13.996473-4.514991 3.611993-10.835979 5.417989-18.059965 5.417989-9.029982 0-17.156966-2.708995-24.380952-8.126984-3.160494-2.257496-5.417989-4.96649-7.223986-8.126984-0.451499-0.451499-0.451499-1.354497-1.354497-3.160494-1.354497 0.451499-2.257496 1.354497-2.708995 1.354498l-12.641975 6.772486c-0.451499 0-0.451499 0.451499-1.354498 0.902999 0.451499 0.451499 0.451499 1.354497 0.4515 1.354497 3.611993 7.675485 9.932981 13.996473 18.511463 18.511464 9.029982 4.514991 19.414462 7.223986 31.15344 7.223986 7.223986 2.708995 15.802469 0.902998 23.026455-2.257496z" p-id="8636"></path><path d="M756.261023 746.86081132h-21.671958l-0.451499 1.354497-24.832451 68.627866-24.380953-68.176367c0-0.451499-0.451499-0.451499-0.451499-1.354497l-0.451499-0.451499H660.994709l1.354497 3.160494c0 0.451499 0.451499 0.451499 0.451499 0.451499l35.668431 93.008818-17.156967 40.634921c-0.451499 0.451499-0.451499 1.354497-1.354497 2.257495l-1.354497 3.160494h21.671957l55.082893-141.770723 0.902998-0.902998zM619.005291 745.95781332c-6.320988 0-13.093474 1.354497-18.511464 4.514991l-0.451499 0.451499c-4.063492 2.257496-7.675485 5.417989-10.38448 9.481481l-0.451499 0.4515-1.354497-12.641976h-17.156967v95.266314h20.76896v-54.179894c0-7.223986 2.257496-13.093474 6.320987-17.156966s9.481481-6.320988 16.253969-6.320988c6.320988 0 10.835979 2.257496 14.447971 5.869488 3.611993 4.063492 5.417989 9.481481 5.41799 16.253969v55.98589h20.768959v-60.049382c0-6.772487-1.354497-13.544974-4.514991-19.865962-3.160494-5.417989-7.223986-10.38448-12.190476-13.093474-6.320988-3.611993-12.641975-4.96649-18.962963-4.96649zM511.548501 746.86081132c8.126984-0.451499 16.705467 2.257496 23.929453 6.320988 7.223986 4.063492 12.641975 9.932981 16.253968 17.156966 4.063492 8.126984 5.869489 16.705467 5.869489 25.73545 0 9.481481-2.257496 18.059965-5.869489 25.73545-3.611993 7.223986-9.481481 13.093474-16.253968 17.156966-7.223986 4.063492-15.802469 6.320988-23.929453 6.320988-8.578483 0.451499-16.705467-2.257496-23.929453-6.320988-7.223986-4.063492-12.641975-9.932981-16.253969-17.156966-3.611993-7.223986-5.869489-15.802469-5.869488-25.73545s2.257496-18.059965 5.869488-25.73545c3.611993-7.223986 9.481481-13.093474 16.253969-17.156966 7.223986-4.96649 15.35097-6.772487 23.929453-6.320988z m0 18.059965c-7.675485 0-13.996473 2.708995-18.511464 8.126984s-7.223986 13.093474-7.223986 22.123457c0 9.029982 2.257496 16.253968 7.223986 22.123456 4.514991 5.417989 10.835979 8.126984 18.511464 8.126985 7.223986 0.451499 13.996473-3.160494 18.059965-8.126985 4.514991-5.417989 7.223986-13.093474 7.223985-22.123456 0-9.481481-2.257496-16.705467-7.223985-22.123457-4.063492-5.417989-11.287478-8.578483-18.059965-8.126984zM421.248677 745.95781332c5.869489 0 11.738977 1.805996 17.156967 4.514991 5.417989 3.160494 9.481481 8.126984 12.190476 13.544973 2.708995 5.869489 4.063492 12.190476 4.063492 18.511464v60.952381h-20.768959v-58.243386c0-6.320988-1.805996-11.287478-4.966491-14.899471-3.160494-3.611993-7.675485-5.417989-13.093474-5.417989-6.320988 0-10.835979 2.257496-14.899471 5.869488-3.611993 3.611993-5.417989 9.029982-5.417989 15.35097v56.888889H374.744268v-57.791887c0-6.320988-1.805996-11.287478-4.96649-14.899471s-7.675485-5.417989-13.093475-5.417989c-5.417989-0.451499-10.835979 2.257496-14.899471 5.869488-3.611993 3.611993-5.417989 9.029982-5.417989 15.35097v56.888889h-20.768959v-95.266314h17.156966l1.354497 12.190476 0.4515-0.451499c2.257496-3.611993 5.869489-7.223986 9.481481-9.481481l0.451499-0.451499c5.417989-3.160494 11.287478-4.514991 17.156967-4.514992 6.320988 0 12.190476 1.354497 17.156966 4.514992 4.514991 3.160494 8.578483 7.223986 11.287478 11.738977 2.708995-4.514991 6.320988-9.029982 11.287478-11.287478l0.451499-0.451499c5.417989-3.160494 11.287478-4.514991 17.608466-4.514992h0.902998l0.902998 0.902999zM294.377425 745.95781332c-6.320988 0-12.190476 1.354497-17.156966 4.063492l-0.4515 0.451499c-3.611993 2.257496-6.772487 5.417989-9.029982 9.029982l-0.451499 0.451499-1.354497-11.287478h-18.962963v95.266314h20.768959v-55.082892c0-7.223986 2.257496-12.641975 6.772487-16.705467 4.514991-4.063492 10.38448-6.320988 18.059965-6.320988 2.257496 0 4.514991 0 7.223985 0.451499h0.4515c0.451499 0 0.451499 0 0.902998 0.451499l1.354497 0.451499v-2.257495-16.705468l-0.451499-0.451499c-0.451499-0.451499-1.354497-0.451499-1.354497-0.451499-2.257496-0.902998-4.063492-1.354497-6.320988-1.354497zM190.984127 744.15181632c11.738977 0 21.671958 3.160494 28.444444 9.029983s10.38448 14.447972 10.38448 24.832451V842.57862432h-17.156966l-1.354498-11.287478-0.451499 0.451499c-2.257496 3.160494-5.417989 5.869489-9.029982 8.126984l-0.451499 0.451499-0.451499 0.4515c-5.417989 2.708995-11.738977 4.063492-18.059965 3.611992-10.38448 0-18.511464-2.708995-24.832452-8.126984-6.320988-5.417989-9.481481-12.190476-9.481481-21.220458 0-5.869489 1.805996-11.738977 4.96649-16.253968 3.611993-4.96649 8.578483-9.029982 13.996473-11.287478 6.320988-2.708995 13.093474-4.063492 19.865961-3.611993h22.123457v-2.257496c0-5.869489-1.354497-10.38448-4.514991-13.544973l-0.451499-0.4515-0.4515-0.451499c-3.611993-3.160494-8.126984-4.514991-14.447971-4.96649-4.514991 0-9.029982 0.902998-13.093475 3.160494-3.611993 1.805996-6.320988 4.514991-9.029982 7.223986v0.451499l-0.451499 0.451499-0.451499 0.451499-0.4515 0.902998-1.805996-1.354497-0.451499-0.451499-10.835979-8.126984c-0.451499 0-0.451499-0.451499-0.902998-0.451499l-0.902998-0.902999 0.451499-1.354497c0.451499-0.451499 0.451499-0.451499 0.451499-0.902998 3.611993-5.417989 9.029982-9.481481 14.899471-12.641976 8.126984-2.708995 15.802469-4.514991 23.929453-4.514991z m17.608466 55.534392h-19.865962c-5.869489 0-10.835979 1.354497-14.447971 4.063492-3.611993 2.257496-5.417989 6.320988-5.41799 10.38448 0 3.611993 1.805996 7.675485 4.96649 9.93298 3.160494 2.708995 7.675485 3.611993 13.093475 3.611993 7.223986 0 12.190476-2.257496 16.253968-6.320988 3.611993-4.063492 5.869489-9.029982 5.869489-15.802469V800.13770732c0.451499 0 0-0.451499-0.451499-0.451499zM47.858907 710.28938232H26.186949v134.095238h21.671958v-59.146384h65.467372v59.146384h21.671957v-134.095238h-21.671957v54.631394H47.858907v-54.631394zM837.982363 708.85361532c-37.474427 0-67.724868 30.250441-67.724867 67.724868s30.250441 67.724868 67.724867 67.724868 67.724868-30.250441 67.724868-67.724868-30.250441-67.724868-67.724868-67.724868z m0 116.035274c-26.638448 0-48.761905-21.671958-48.761904-48.761905 0-26.638448 21.671958-48.761905 48.761904-48.761905 26.638448 0 48.761905 21.671958 48.761905 48.761905 0 27.089947-21.671958 48.761905-48.761905 48.761905z" p-id="8637"></path></svg>
