<?xml version="1.0" standalone="no"?><!DOCTYPE svg PUBLIC "-//W3C//DTD SVG 1.1//EN" "http://www.w3.org/Graphics/SVG/1.1/DTD/svg11.dtd"><svg t="1779019305466" class="icon" viewBox="0 0 1024 1024" version="1.1" xmlns="http://www.w3.org/2000/svg" p-id="6916" xmlns:xlink="http://www.w3.org/1999/xlink" width="200" height="200"><path d="M263.932 25.5c21.263 0 38.5 17.237 38.5 38.5v37.37h90.687V64c0-21.263 17.237-38.5 38.5-38.5h160.815c21.263 0 38.5 17.237 38.5 38.5v37.37h93.268V64c0-21.263 17.237-38.5 38.5-38.5h154.376c21.263 0 38.5 17.237 38.5 38.5v683.926a38.5 38.5 0 0 1-20.5 34.034L534.076 994.034a38.5 38.5 0 0 1-35.653 0.18l-411-212.074a38.5 38.5 0 0 1-20.846-34.214V64c0-21.263 17.237-38.5 38.5-38.5z m614.646 332.999h-735v365.97l372.28 192.095 362.72-191.83V358.5zM225.432 102.5h-81.854v178.999h735V102.5h-77.376v37.37c0 21.262-17.237 38.5-38.5 38.5H592.434c-21.263 0-38.5-17.238-38.5-38.5V102.5H470.12v37.37c0 21.262-17.237 38.5-38.5 38.5H263.932c-21.263 0-38.5-17.238-38.5-38.5V102.5z" fill="#1296db" p-id="6917"></path><path d="M496.894 431.177l-126 49.615a38.5 38.5 0 0 0-24.394 35.823v99.28c0 83.186 53.835 153.95 135.797 184.897 5.855 2.21 8.283 3.083 11.542 4.052 5.748 1.71 11.183 2.656 17.17 2.656 5.986 0 11.421-0.945 17.169-2.656 3.259-0.97 5.686-1.843 11.531-4.048 81.968-30.95 135.791-101.712 135.791-184.9v-99.281a38.5 38.5 0 0 0-24.394-35.823l-126-49.615a38.5 38.5 0 0 0-28.212 0zM598.5 542.832v73.064c0 49.673-32.783 92.774-85.98 112.86l-1.512 0.57-1.522-0.574c-53.193-20.085-85.986-63.19-85.986-112.856v-73.064l87.5-34.455 87.5 34.455z" fill="#1296db" p-id="6918"></path></svg>